<svg preserveAspectRatio="xMidYMid meet" width="100%" height="100%" overflow="visible" style="display: block;" viewBox="0 0 63 32" fill="none" xmlns="http://www.w3.org/2000/svg">
<path id="Vector" d="M0 5.88C0 2.36 2.06949 0 5.17372 0C6.92483 0 8.07896 0.8 8.55654 2.28C8.63613 1.64 8.83512 1 9.15351 0.36H13.2925V18.84H6.04927V18H6.84523C7.72078 18 7.99937 17.64 7.99937 16.52V4.04C7.99937 2.52 7.56159 1.84 6.60644 1.84C5.69109 1.84 5.29311 2.48 5.29311 4.04V28.16C5.29311 29.72 5.73089 30.36 6.72584 30.36C7.60139 30.36 7.99937 29.68 7.99937 28.16V20.48H13.2925V26.04C13.2925 29.68 10.7056 32 6.72584 32C2.66646 32 0 29.64 0 26.04V5.88ZM15.2824 2.68C15.2824 1.56 15.0038 1.2 14.1282 1.2H13.8099V0.36H22.2868V1.2H21.5704C20.7347 1.2 20.4561 1.6 20.4561 2.68V16.92H21.65C22.7246 16.92 23.043 16.44 23.043 14.84V4.08C23.043 2 23.2021 1.08 23.6797 0.36H30.2464V1.2H29.8086C28.6545 1.2 28.2565 1.8 28.2565 3.52V13.12C28.2565 15.64 26.784 17.28 23.2817 18C26.9829 18.6 28.3361 20.68 28.3361 23.48V26.12C28.3361 29.68 26.1472 31.64 22.1674 31.64H13.8099V30.8H14.1282C15.0038 30.8 15.2824 30.44 15.2824 29.32V2.68ZM20.4561 18.84V29.72H21.3316C22.7644 29.72 23.1226 29.16 23.1226 27V21.64C23.1226 19.4 22.7644 18.84 21.3316 18.84H20.4561ZM29.8484 5.96C29.8484 2.36 32.5148 0 36.5742 0C40.5938 0 43.1807 2.36 43.1807 5.96V26.04C43.1807 29.64 40.5938 32 36.5742 32C32.5148 32 29.8484 29.64 29.8484 26.04V5.96ZM36.5742 1.64C35.5793 1.64 35.1415 2.32 35.1415 3.84V28.16C35.1415 29.68 35.5793 30.36 36.5742 30.36C37.4896 30.36 37.8876 29.72 37.8876 28.16V3.84C37.8876 2.28 37.4896 1.64 36.5742 1.64ZM46.9217 0.36H50.0259L53.3689 24.72H52.3342L55.518 0.36H58.7018L60.7713 27.48C61.0101 30.04 61.4479 30.8 62.602 30.8H63V31.64H57.2691V30.8H57.4681C58.9008 30.8 59.3386 29.96 59.1794 27.56L57.7467 8.12L58.9406 8.16L55.8762 31.64H52.8515L49.6279 8.16L50.7821 8.12L49.4289 29.16C49.3493 30.36 49.6279 30.8 50.5035 30.8H50.981V31.64H42.4643V30.8H43.0215C44.0164 30.8 44.2154 30.52 44.3348 29.08L46.9217 0.36Z" fill="var(--fill-0, #010204)"/>
</svg>
