<svg preserveAspectRatio="xMidYMid meet" width="48" height="48" viewBox="0 0 48 48" fill="none" xmlns="http://www.w3.org/2000/svg">
  <path
    d="M22.5734 4.39058C23.0224 3.00861 24.9776 3.00861 25.4266 4.39058L29.0516 15.5471C29.2524 16.1652 29.8283 16.5836 30.4781 16.5836H42.2088C43.6619 16.5836 44.2661 18.443 43.0905 19.2971L33.6002 26.1922C33.0745 26.5742 32.8545 27.2513 33.0553 27.8693L36.6803 39.0258C37.1293 40.4078 35.5476 41.557 34.372 40.7029L24.8817 33.8078C24.3559 33.4258 23.6441 33.4258 23.1183 33.8078L13.628 40.7029C12.4524 41.557 10.8707 40.4078 11.3197 39.0258L14.9447 27.8693C15.1455 27.2513 14.9255 26.5742 14.3998 26.1922L4.90949 19.2971C3.73392 18.443 4.33808 16.5836 5.79117 16.5836H17.5219C18.1717 16.5836 18.7476 16.1652 18.9484 15.5471L22.5734 4.39058Z"
    fill="#4C1D44"
  />
</svg>
